# xmcd CD database file
#
# Track frame offsets:
#	150
#	15624
#	30614
#	43790
#	60821
#	74391
#	89369
#	105460
#	119243
#	137827
#	151834
#	168829
#	184268
#	196545
#	213431
#	228856
#	248015
#	263071
#	279638
#	294275
#	311280
#
# Disc length: 4346 seconds
#
# Revision: 0
# Processed by: cddbd v1.5.2PL0 Copyright (c) Steve Scherf et al.
# Submitted via: CDex 1.51
#
DISCID=1910f815
DTITLE=Various Artist - Forsyth Street Blues - 90 Years Of The Rialto
DYEAR=2010
DGENRE=Jazz
TTITLE0=National Promenade Band - The Memphis Blues
TTITLE1=George Wilton Band - San San Soo - Hip-Hip Hooray
TTITLE2=Arthur Collins and Byron G Harlan - In Honeysuckle Time
TTITLE3=Glen Ellison - My Bonnie, Bonnie Jean
TTITLE4=Walter Van Brunt - Luana Lou
TTITLE5=Helen Louise and Frank Ferera - Hilo March
TTITLE6=Gladys Rice and Walter Van Brunt - I Never Knew - Canary Cottage
TTITLE7=Walter Van Brunt - Katinka
TTITLE8=George Wilton Ballard - I Wonder If You Miss Me Sometimes
TTITLE9=Walter Van Brunt - Everything's At Home Except Your Wife
TTITLE10=Armand Vecsey - Pretty Edelweiss - Alone At Last
TTITLE11=Maurice Burkhart - Cohen Owes Me Ninety-Seven Dollars
TTITLE12=Vess L. Ossman - Keep Off The Grass
TTITLE13=New York Millitary Band - Fashion Plate March
TTITLE14=Gladys Rice - Come Back, Sweet Dreams
TTITLE15=Harlan E. Knight - A The County Fair
TTITLE16=Arthur Collins and Byron G Harlan - Dancing Down In Dixie Land
TTITLE17=Jaudas Society Orchestra - Ole Virginny
TTITLE18=Helen Louise and Frank Ferera - Kamehameha March
TTITLE19=Jaudas Society Orchestra - Listen To This
TTITLE20=Helen Louise and Frank Ferera - My Sweet Sweeting
EXTD=YEAR: 2010
EXTT0=
EXTT1=
EXTT2=
EXTT3=
EXTT4=
EXTT5=
EXTT6=
EXTT7=
EXTT8=
EXTT9=
EXTT10=
EXTT11=
EXTT12=
EXTT13=
EXTT14=
EXTT15=
EXTT16=
EXTT17=
EXTT18=
EXTT19=
EXTT20=
PLAYORDER=
